<svg width="44" height="44" viewBox="0 0 44 44" fill="none" xmlns="http://www.w3.org/2000/svg">
<circle cx="22" cy="22" r="22" fill="url(#paint0_linear_4514_9089)"/>
<path d="M28.1194 16.7294C28.133 16.5838 28.1834 16.3751 28.3465 16.1897C28.5571 15.9499 28.8318 15.8907 28.9997 15.8781H31.6339C31.9464 15.8781 32.2007 15.6247 32.2007 15.3112V12.364C32.2007 12.0515 31.9474 11.7971 31.6339 11.7971H28.6872C28.3746 11.7971 28.1203 12.0505 28.1203 12.364V14.9928C28.1106 15.1394 28.0631 15.385 27.8651 15.5956C27.6904 15.781 27.4798 15.8528 27.3206 15.8791H24.6058C24.2933 15.8791 24.039 16.1324 24.039 16.446V19.0747C24.0293 19.2213 23.9817 19.4669 23.7837 19.6775C23.609 19.8629 23.3984 19.9348 23.2392 19.961H20.7467C20.5876 19.9348 20.3769 19.8629 20.2022 19.6775C20.0411 19.5067 19.98 19.3135 19.9576 19.1679V16.4469C19.9576 16.1344 19.7043 15.88 19.3908 15.88H16.6664C16.5072 15.8538 16.2966 15.782 16.1218 15.5966C15.9607 15.4257 15.8996 15.2325 15.8773 15.0869V12.364C15.8773 12.0515 15.6239 11.7971 15.3104 11.7971H12.3637C12.0502 11.7971 11.7969 12.0505 11.7969 12.364V15.3112C11.7969 15.6238 12.0502 15.8781 12.3637 15.8781H14.9872C15.1551 15.8907 15.4298 15.9509 15.6404 16.1897C15.9035 16.4887 15.8734 16.8478 15.8676 16.908L15.8782 16.8983V19.0728C15.8685 19.2194 15.821 19.4649 15.623 19.6756C15.4483 19.861 15.2376 19.9328 15.0785 19.9591H12.3637C12.0512 19.9591 11.7969 20.2124 11.7969 20.526V31.636C11.7969 31.9486 12.0502 32.2029 12.3637 32.2029H15.3104C15.623 32.2029 15.8773 31.9496 15.8773 31.636V20.8104C15.8908 20.6648 15.9413 20.4561 16.1044 20.2707C16.315 20.0309 16.5897 19.9717 16.7576 19.9591H19.0686C19.2365 19.9717 19.5112 20.0319 19.7218 20.2707C19.9848 20.5696 19.9547 20.9288 19.9489 20.989L19.9596 20.9793V23.4731C19.9596 23.7857 20.2129 24.04 20.5264 24.04H23.4731C23.7857 24.04 24.04 23.7867 24.04 23.4731V20.8094C24.0536 20.6638 24.104 20.4551 24.2671 20.2697C24.4777 20.0299 24.7524 19.9707 24.9203 19.9581H27.2313C27.3992 19.9707 27.6739 20.0309 27.8845 20.2697C28.1475 20.5687 28.1174 20.9278 28.1116 20.988L28.1223 20.9783V31.635C28.1223 31.9476 28.3756 32.2019 28.6891 32.2019H31.6358C31.9484 32.2019 32.2027 31.9486 32.2027 31.635V20.526C32.2027 20.2134 31.9493 19.9591 31.6358 19.9591H28.9114C28.7522 19.9328 28.5416 19.861 28.3669 19.6756C28.2058 19.5047 28.1446 19.3116 28.1223 19.166V16.7284L28.1194 16.7294Z" fill="white"/>
<defs>
<linearGradient id="paint0_linear_4514_9089" x1="9.88136" y1="6.16667" x2="19.7697" y2="42.4413" gradientUnits="userSpaceOnUse">
<stop stop-color="#0F51FB"/>
<stop offset="0.444764" stop-color="#6324FB"/>
<stop offset="1" stop-color="#EF3678"/>
</linearGradient>
</defs>
</svg>
